<svg width="36" height="36" viewBox="0 0 36 36" fill="none" xmlns="http://www.w3.org/2000/svg">
  <defs>
    <linearGradient id="brandGradient" x1="0" y1="0" x2="36" y2="36" gradientUnits="userSpaceOnUse">
      <stop offset="0%" stop-color="#3b82f6" />
      <stop offset="100%" stop-color="#9333ea" />
    </linearGradient>
  </defs>
  
  <rect width="36" height="36" rx="8" fill="url(#brandGradient)" />
  
  <g transform="translate(8, 8)">
    <svg width="20" height="20" viewBox="0 0 24 24" fill="none" stroke="white" stroke-width="2" stroke-linecap="round" stroke-linejoin="round">
      <path d="M17.5 22h.5a2 2 0 0 0 2-2V7l-5-5H6a2 2 0 0 0-2 2v3" />
      <path d="M14 2v4a2 2 0 0 0 2 2h4" />
      <path d="M2 19a2 2 0 1 1 4 0v1a2 2 0 1 1-4 0v-4a6 6 0 0 1 12 0v4a2 2 0 1 1-4 0v-1a2 2 0 1 1 4 0" />
    </svg>
  </g>
</svg>
