<svg width="64" height="64" viewBox="0 0 64 64" fill="none" xmlns="http://www.w3.org/2000/svg">
  <defs>
    <linearGradient id="grad1" x1="0%" y1="0%" x2="100%" y2="100%">
      <stop offset="0%" style="stop-color:#3B82F6;stop-opacity:1" />
      <stop offset="100%" style="stop-color:#9333EA;stop-opacity:1" />
    </linearGradient>
  </defs>
  
  <!-- Background: Rounded Square -->
  <rect x="0" y="0" width="64" height="64" rx="16" fill="url(#grad1)" />
  
  <!-- Icon: FileAudio from Lucide -->
  <!-- Centered and Scaled: 24px -> 40px (1.66x), positioned at 12,12 -->
  <g transform="translate(12, 12) scale(1.6667)">
    <path d="M4 6.835V4a2 2 0 0 1 2-2h8a2.4 2.4 0 0 1 1.706.706l3.588 3.588A2.4 2.4 0 0 1 20 8v12a2 2 0 0 1-2 2h-.343" stroke="white" stroke-width="2" stroke-linecap="round" stroke-linejoin="round" />
    <path d="M14 2v5a1 1 0 0 0 1 1h5" stroke="white" stroke-width="2" stroke-linecap="round" stroke-linejoin="round" />
    <path d="M2 19a2 2 0 0 1 4 0v1a2 2 0 0 1-4 0v-4a6 6 0 0 1 12 0v4a2 2 0 0 1-4 0v-1a2 2 0 0 1 4 0" stroke="white" stroke-width="2" stroke-linecap="round" stroke-linejoin="round" />
  </g>
</svg>
